<svg width="73" height="63" viewBox="0 0 73 63" fill="none" xmlns="http://www.w3.org/2000/svg">
<g clip-path="url(#clip0_3096_5935)">
<path d="M73 0H0V63H73V0Z" fill="black"/>
<path d="M27.8053 50.8951L28.4069 50.0472C27.9129 49.4686 27.6283 48.7418 27.5986 47.9831H28.1492C28.1663 48.577 28.3692 49.1509 28.7297 49.6246C29.076 49.1456 29.2677 48.5731 29.2794 47.9831H29.8203C29.7994 48.6969 29.5481 49.3851 29.1035 49.9457L28.1967 51.2014L27.8053 50.8951ZM52.1759 49.048C52.1759 48.7493 52.2951 48.4629 52.5074 48.2517C52.7197 48.0405 53.0076 47.9219 53.3078 47.9219C53.608 47.9219 53.8959 48.0405 54.1082 48.2517C54.3205 48.4629 54.4397 48.7493 54.4397 49.048C54.4397 49.3467 54.3205 49.6331 54.1082 49.8443C53.8959 50.0555 53.608 50.1741 53.3078 50.1741C53.0076 50.1741 52.7197 50.0555 52.5074 49.8443C52.2951 49.6331 52.1759 49.3467 52.1759 49.048ZM52.7405 49.0419C52.7405 49.461 52.8839 49.6815 53.3087 49.6815C53.7335 49.6815 53.8795 49.461 53.8795 49.0419C53.8795 48.6227 53.73 48.4022 53.3087 48.4022C52.8874 48.4022 52.7405 48.6201 52.7405 49.0445V49.0419ZM49.3913 49.4732V48.432H48.9938V47.9857H49.3887V47.3951H49.9305V47.9849H50.6209V48.4311H49.9305V49.3499C49.9305 49.6124 50.0615 49.6535 50.3403 49.6535C50.4561 49.6534 50.5719 49.6464 50.6868 49.6325V50.1234C50.5364 50.147 50.3844 50.159 50.2321 50.1592C49.6842 50.1601 49.3913 49.9825 49.3913 49.4767V49.4732ZM45.8838 49.9702V50.1129H45.3429V48.096V46.9419H45.8864V48.0951C46.1152 48 46.3598 47.9484 46.6076 47.9429C47.2031 47.9429 47.5584 48.3917 47.5584 49.0524C47.5584 49.713 47.2066 50.1619 46.6076 50.1619C46.354 50.1621 46.1046 50.0969 45.8838 49.9729V49.9702ZM45.89 48.5037V49.5826C46.0833 49.6406 46.2835 49.6727 46.4854 49.678C46.8565 49.678 47.0087 49.4365 47.0087 49.0471C47.0087 48.6577 46.8653 48.4075 46.4854 48.4075C46.2831 48.4116 46.0826 48.4449 45.89 48.5064V48.5037ZM32.8194 49.3577V47.9866H33.3639V49.3341C33.359 49.3824 33.3652 49.4312 33.3821 49.4768C33.3989 49.5223 33.4259 49.5635 33.461 49.5972C33.4962 49.6309 33.5385 49.6562 33.5849 49.6712C33.6313 49.6863 33.6805 49.6907 33.7289 49.6841C33.9411 49.6785 34.1516 49.6434 34.3542 49.58V47.9866H34.8986V50.1164H34.3938V49.9676C34.1193 50.0981 33.8184 50.1642 33.5143 50.161C33.1519 50.1601 32.8194 49.9256 32.8194 49.3604V49.3577ZM30.1132 49.048C30.0947 48.8965 30.1114 48.7428 30.1619 48.5987C30.2125 48.4547 30.2956 48.324 30.4048 48.2169C30.514 48.1098 30.6465 48.029 30.792 47.9807C30.9375 47.9324 31.0922 47.918 31.2442 47.9385C31.3964 47.9174 31.5515 47.9313 31.6975 47.9793C31.8434 48.0273 31.9763 48.1081 32.0859 48.2153C32.1954 48.3226 32.2788 48.4534 32.3294 48.5978C32.3801 48.7422 32.3966 48.8962 32.3779 49.048C32.3954 49.1995 32.3779 49.353 32.3269 49.4968C32.2758 49.6406 32.1924 49.7709 32.0831 49.8779C31.9738 49.9849 31.8415 50.0656 31.6961 50.1141C31.5508 50.1625 31.3962 50.1774 31.2442 50.1575C31.0928 50.1767 30.939 50.1614 30.7943 50.1129C30.6496 50.0644 30.5179 49.9839 30.409 49.8774C30.3002 49.771 30.217 49.6413 30.1657 49.4983C30.1145 49.3552 30.0965 49.2025 30.1132 49.0515V49.048ZM30.676 49.0419C30.676 49.461 30.8194 49.6815 31.2442 49.6815C31.669 49.6815 31.8185 49.461 31.8185 49.0419C31.8185 48.6227 31.669 48.4022 31.2442 48.4022C30.8194 48.4022 30.676 48.6201 30.676 49.0445V49.0419ZM24.2019 49.0419C24.1787 48.8935 24.1906 48.7418 24.2368 48.5989C24.283 48.456 24.3622 48.3258 24.468 48.2188C24.5738 48.1117 24.7033 48.0308 24.8462 47.9824C24.989 47.9341 25.1413 47.9196 25.2908 47.9402C26.0586 47.9402 26.2829 48.3182 26.2829 49.0025C26.2829 49.0777 26.2829 49.1722 26.2767 49.223H24.749C24.7701 49.601 25.0269 49.72 25.4218 49.72C25.6696 49.7205 25.9165 49.6912 26.1571 49.6325V50.0822C25.9041 50.1388 25.645 50.1638 25.3857 50.1566C25.2304 50.1802 25.0717 50.1683 24.9217 50.1216C24.7717 50.075 24.6344 49.9949 24.5202 49.8875C24.406 49.7801 24.318 49.6481 24.2629 49.5017C24.2077 49.3553 24.1869 49.1975 24.2019 49.0419ZM24.749 48.8721H25.7534C25.7534 48.5694 25.7173 48.3576 25.2723 48.3576C24.895 48.3576 24.7701 48.5431 24.749 48.8721ZM56.4362 50.1155V48.7689C56.4407 48.721 56.4342 48.6727 56.4175 48.6276C56.4007 48.5825 56.3741 48.5416 56.3394 48.5081C56.3048 48.4746 56.263 48.4491 56.2172 48.4337C56.1715 48.4183 56.1228 48.4132 56.0748 48.4189C55.8626 48.4257 55.6523 48.4607 55.4494 48.523V50.1199H54.9024V47.9866H55.4143V48.1319C55.6874 48.0043 55.9858 47.9391 56.2876 47.9411C56.6553 47.9411 56.9912 48.1765 56.9912 48.7417V50.1164L56.4362 50.1155ZM51.1407 50.1155V47.9866H51.6877V50.1164L51.1407 50.1155ZM48.0483 50.1155V47.9866H48.5953V50.1164L48.0483 50.1155ZM44.1907 50.1155V48.7855C44.1907 48.5151 44.0447 48.4232 43.8468 48.4197C43.6396 48.414 43.4333 48.4494 43.24 48.5239C43.2525 48.5837 43.2587 48.6447 43.2584 48.7059V50.1155H42.7114V48.7855C42.7114 48.5151 42.5707 48.4197 42.3701 48.4197C42.1642 48.4195 41.9598 48.4548 41.7659 48.5239V50.1155H41.2188V47.9866H41.7272V48.1319C41.978 48.0134 42.2509 47.9484 42.5284 47.9411C42.631 47.935 42.7337 47.9518 42.8288 47.9905C42.9239 48.0291 43.0092 48.0885 43.0781 48.1642C43.3643 48.016 43.6825 47.9394 44.0051 47.9411C44.107 47.933 44.2093 47.9478 44.3046 47.9844C44.3999 48.021 44.4858 48.0784 44.5558 48.1524C44.6258 48.2264 44.6781 48.3151 44.709 48.412C44.7399 48.5088 44.7486 48.6114 44.7343 48.712V50.112L44.1907 50.1155ZM40.13 50.1155V49.8066C40.13 49.6316 40.1212 49.4732 40.1062 49.3245H38.6418C38.6231 49.4833 38.614 49.6432 38.6146 49.8031V50.1129H38.0561V49.7471C38.0982 48.8029 38.3956 47.8876 38.9171 47.0976L38.9532 47.0285H39.7518L39.7966 47.1037C40.3499 47.8895 40.6604 48.8189 40.6902 49.7777V50.1172L40.13 50.1155ZM38.7228 48.8459H40.0209C39.8583 48.3441 39.6375 47.8628 39.363 47.4117C39.089 47.8611 38.8727 48.3429 38.7192 48.8459H38.7228ZM35.4932 50.1155V47.9866H36.0015V48.1319C36.2747 48.0043 36.5731 47.9391 36.8749 47.9411V48.4145C36.593 48.407 36.3115 48.4421 36.0402 48.5186V50.1155H35.4932ZM22.5484 50.1155C22.041 49.5185 21.7521 48.7681 21.7287 47.9866H22.2731C22.284 48.5714 22.4716 49.1394 22.8114 49.6167C23.1512 49.1394 23.3388 48.5714 23.3497 47.9866H23.8967C23.8725 48.7686 23.5826 49.5193 23.0744 50.1164L22.5484 50.1155ZM20.7366 50.1155V47.9866H21.2837V50.1164L20.7366 50.1155ZM18.9424 50.1155V47.9866H19.4508V48.1319C19.7241 48.0048 20.0224 47.9396 20.3241 47.9411V48.4145C20.0425 48.4073 19.7614 48.4424 19.4903 48.5186V50.1155H18.9424ZM15.8359 50.1155V47.0276H17.0936C17.9336 47.0276 18.4631 47.48 18.4631 48.572C18.4631 49.6281 17.9283 50.1155 17.0761 50.1155H15.8359ZM16.3856 49.601H17.0893C17.617 49.601 17.8931 49.2711 17.8931 48.5597C17.8931 47.8484 17.6293 47.5395 17.1068 47.5395H16.3856V49.601ZM51.0299 47.2901L51.4098 46.8972L51.795 47.2901L51.4098 47.676L51.0299 47.2901ZM47.9375 47.2901L48.3201 46.8972L48.7026 47.2901L48.3201 47.676L47.9375 47.2901ZM20.6249 47.2901L21.004 46.8972L21.3901 47.2901L21.004 47.676L20.6249 47.2901ZM44.7782 43.9826V43.1496C45.1712 43.2212 45.5697 43.2581 45.9691 43.2599C46.4326 43.2599 46.6657 43.1977 46.6657 42.9475C46.6657 42.6526 46.4678 42.6141 45.817 42.3175C45.1863 42.0314 44.7167 41.7785 44.7167 41.103C44.7167 40.2735 45.225 39.9874 46.2303 39.9874C46.6041 39.9877 46.9774 40.0114 47.3482 40.0582V40.8912C46.9854 40.8434 46.62 40.8165 46.2541 40.8107C45.7123 40.8107 45.605 40.8676 45.605 41.0872C45.605 41.3069 45.8979 41.4232 46.3376 41.6201C46.9981 41.9176 47.5399 42.1644 47.5399 42.923C47.5399 43.7105 47.043 44.0859 45.97 44.0859C45.5705 44.0849 45.1719 44.0504 44.7782 43.9826ZM37.1335 42.0357C37.1335 40.6086 37.6805 39.9865 38.8617 39.9865C40.0429 39.9865 40.59 40.6086 40.59 42.0357C40.59 43.4629 40.0403 44.0859 38.8617 44.0859C37.6832 44.0859 37.1335 43.4637 37.1335 42.0357ZM38.0666 42.0357C38.0666 42.8565 38.2074 43.2704 38.8582 43.2704C39.509 43.2704 39.6498 42.8565 39.6498 42.0357C39.6498 41.215 39.509 40.8107 38.8582 40.8107C38.2074 40.8107 38.0666 41.2202 38.0666 42.0357ZM30.3128 42.0357C30.3128 40.6086 30.8607 39.9865 32.0411 39.9865C33.2214 39.9865 33.7693 40.6086 33.7693 42.0357C33.7693 43.4629 33.2196 44.0859 32.0411 44.0859C30.8625 44.0859 30.3128 43.4637 30.3128 42.0357ZM31.246 42.0357C31.246 42.8565 31.3867 43.2704 32.0375 43.2704C32.6884 43.2704 32.8291 42.8565 32.8291 42.0357C32.8291 41.215 32.6884 40.8107 32.0375 40.8107C31.3867 40.8107 31.246 41.2202 31.246 42.0357ZM28.7948 44.0316V41.2255L27.5863 43.231L26.3726 41.2255V44.0307H25.4755V40.0451H26.6391L27.5863 41.6665L28.5133 40.0451H29.6971V44.0342L28.7948 44.0316ZM34.9998 44.0316V40.8729H33.9136V40.0451H36.9875V40.8746H35.9021V44.0307L34.9998 44.0316ZM43.3552 44.0316L42.5064 42.6071H42.1054V44.0316H41.21V40.0451H42.8371C43.6956 40.0451 44.2444 40.3636 44.2444 41.3244C44.2693 41.5813 44.1993 41.8385 44.0474 42.0479C43.8956 42.2572 43.6723 42.4044 43.4194 42.4619L44.4097 44.029L43.3552 44.0316ZM42.1063 41.8275H42.7791C43.1854 41.8275 43.3068 41.6254 43.3068 41.3217C43.3068 41.0181 43.1846 40.8099 42.7791 40.8099H42.1063V41.8275ZM43.4255 38.6119V37.7824C43.8184 37.8542 44.217 37.891 44.6164 37.8926C45.0799 37.8926 45.313 37.8331 45.313 37.5802C45.313 37.2862 45.1151 37.2469 44.4643 36.9502C43.8336 36.6641 43.364 36.4112 43.364 35.7366C43.3649 34.9054 43.8715 34.6201 44.8767 34.6201C45.2505 34.6207 45.6239 34.6447 45.9946 34.6919V35.5214C45.6315 35.4765 45.2663 35.4508 44.9005 35.4444C44.3596 35.4444 44.2514 35.5004 44.2514 35.7209C44.2514 35.9414 44.5443 36.0569 44.9849 36.2529C45.6454 36.5504 46.1863 36.7971 46.1863 37.5557C46.1863 38.3432 45.6903 38.7186 44.6164 38.7186C44.2172 38.7165 43.8188 38.6811 43.4255 38.6127V38.6119ZM34.2399 37.3151V34.6761H35.137V37.2819C35.137 37.7377 35.4096 37.8944 35.8406 37.8944C36.2715 37.8944 36.5442 37.7395 36.5442 37.2819V34.6761H37.4448V37.3151C37.4448 38.2776 36.8045 38.7151 35.8388 38.7151C34.8731 38.7151 34.2399 38.282 34.2399 37.3151ZM30.9425 38.6127V37.7824C31.3351 37.8541 31.7334 37.891 32.1325 37.8926C32.596 37.8926 32.8291 37.8331 32.8291 37.5802C32.8291 37.2862 32.6295 37.2469 31.9804 36.9502C31.3489 36.6641 30.8801 36.4112 30.8801 35.7366C30.8757 34.9054 31.3885 34.6201 32.3929 34.6201C32.7678 34.6206 33.1423 34.6446 33.5143 34.6919V35.5214C33.15 35.4764 32.7836 35.4507 32.4166 35.4444C31.8757 35.4444 31.7684 35.5004 31.7684 35.7209C31.7684 35.9414 32.0613 36.0569 32.501 36.2529C33.1616 36.5504 33.7025 36.7971 33.7025 37.5557C33.7025 38.3432 33.2055 38.7186 32.1325 38.7186C31.7336 38.7165 31.3355 38.6811 30.9425 38.6127ZM50.6191 38.6652V34.6761H51.5162V38.6652H50.6191ZM41.8732 38.6652V34.6761H42.7703V38.6652H41.8732ZM48.9876 38.6652V37.0789H47.5646V38.6644H46.6674V34.6752H47.5646V36.2502H48.9876V34.6752H49.8847V38.6644L48.9876 38.6652ZM24.5854 38.6652V35.8591L23.3769 37.8646L22.1632 35.8591V38.6644H21.2661V34.6752H22.4323L23.3769 36.2992L24.3013 34.6752H25.4886V38.6644L24.5854 38.6652ZM38.2082 38.6652V34.677H39.9602C40.7764 34.677 41.2311 34.9745 41.2311 35.7025C41.2437 35.8996 41.1867 36.0949 41.0699 36.2546C40.9532 36.4144 40.7841 36.5286 40.5917 36.5775C40.8152 36.6166 41.0155 36.7384 41.1524 36.9184C41.2893 37.0984 41.3526 37.3233 41.3296 37.5479C41.3296 38.2479 40.9084 38.66 40.02 38.66L38.2082 38.6652ZM39.108 37.9127H39.8916C40.2531 37.9127 40.4 37.7841 40.4 37.4367C40.4 37.127 40.2654 36.9992 39.9303 36.9992H39.108V37.9127ZM39.108 36.2879H39.8292C40.1907 36.2879 40.3191 36.098 40.3191 35.8329C40.3191 35.5144 40.1634 35.4286 39.8292 35.4286H39.108V36.2879ZM28.6224 38.6626V35.5065H27.5397V34.6761H30.6118V35.5056H29.5256V38.6626H28.6224ZM26.2521 38.6626V34.6726H27.1527V38.6626H26.2521Z" fill="white"/>
<path d="M40.1598 31.6635L36.3225 25.0477H44.0015L47.8406 31.6635H40.1598ZM24.8008 31.6635L28.6408 25.0477H36.3225L32.4799 31.6635H24.8008ZM32.4807 18.4318L36.3225 11.8159L40.1624 18.4318L36.3225 25.0477L32.4807 18.4318Z" fill="#ED0000"/>
</g>
<defs>
<clipPath id="clip0_3096_5935">
<rect width="73" height="63" fill="white"/>
</clipPath>
</defs>
</svg>
