<svg width="115" height="100" viewBox="0 0 115 100" fill="none" xmlns="http://www.w3.org/2000/svg">
<rect width="115" height="100" fill="black"/>
<path d="M43.897 81.0186L44.846 79.6726C44.0649 78.7546 43.6145 77.601 43.567 76.3966H44.432C44.4589 77.3391 44.7791 78.2497 45.348 79.0016C45.8948 78.2414 46.1975 77.3329 46.216 76.3966H47.08C47.0475 77.5296 46.6505 78.622 45.948 79.5116L44.512 81.4996L43.897 81.0186ZM82.367 78.0866C82.367 77.6127 82.5553 77.1581 82.8904 76.823C83.2255 76.4879 83.6801 76.2996 84.154 76.2996C84.6279 76.2996 85.0825 76.4879 85.4176 76.823C85.7527 77.1581 85.941 77.6127 85.941 78.0866C85.941 78.5605 85.7527 79.0151 85.4176 79.3502C85.0825 79.6853 84.6279 79.8736 84.154 79.8736C83.6801 79.8736 83.2255 79.6853 82.8904 79.3502C82.5553 79.0151 82.367 78.5605 82.367 78.0866ZM83.259 78.0766C83.259 78.7426 83.485 79.0916 84.159 79.0916C84.833 79.0916 85.059 78.7426 85.059 78.0766C85.059 77.4106 84.823 77.0616 84.159 77.0616C83.495 77.0616 83.259 77.3976 83.259 78.0766ZM77.972 78.7616V77.1046H77.349V76.3966H77.972V75.4606H78.827V76.3966H79.917V77.1046H78.827V78.5636C78.827 78.9746 79.034 79.0456 79.474 79.0456C79.6568 79.0455 79.8395 79.0345 80.021 79.0126V79.7866C79.7838 79.8237 79.5441 79.8425 79.304 79.8426C78.434 79.8476 77.972 79.5646 77.972 78.7616ZM72.434 79.5496V79.7756H71.58V76.5756V74.7396H72.439V76.5666C72.8 76.416 73.186 76.3343 73.577 76.3256C74.516 76.3256 75.077 77.0386 75.077 78.0866C75.077 79.1346 74.515 79.8476 73.577 79.8476C73.1767 79.8485 72.7829 79.7458 72.434 79.5496ZM72.444 77.2226V78.9356C72.7489 79.0278 73.0646 79.0789 73.383 79.0876C73.969 79.0876 74.209 78.7036 74.209 78.0876C74.209 77.4716 73.983 77.0716 73.383 77.0716C73.0644 77.0763 72.7481 77.1272 72.444 77.2226ZM51.809 78.5776V76.3966H52.669V78.5346C52.661 78.6114 52.6706 78.689 52.697 78.7615C52.7234 78.8341 52.7659 78.8996 52.8214 78.9533C52.8769 79.007 52.9439 79.0473 53.0173 79.0713C53.0907 79.0952 53.1685 79.1022 53.245 79.0916C53.5801 79.0827 53.9123 79.0271 54.232 78.9266V76.3966H55.091V79.7766H54.291V79.5406C53.8597 79.7467 53.387 79.8517 52.909 79.8476C52.334 79.8476 51.809 79.4746 51.809 78.5776ZM47.537 78.0866C47.5078 77.8462 47.534 77.6023 47.6137 77.3737C47.6935 77.145 47.8246 76.9377 47.997 76.7677C48.1693 76.5976 48.3784 76.4693 48.6081 76.3927C48.8378 76.316 49.082 76.2931 49.322 76.3256C49.5624 76.292 49.8073 76.3142 50.0377 76.3904C50.2681 76.4666 50.478 76.5947 50.651 76.7649C50.824 76.9352 50.9556 77.1429 51.0355 77.372C51.1155 77.6012 51.1416 77.8457 51.112 78.0866C51.1396 78.3271 51.112 78.5707 51.0314 78.7989C50.9507 79.0271 50.8191 79.234 50.6466 79.4037C50.474 79.5735 50.265 79.7017 50.0355 79.7786C49.806 79.8555 49.562 79.8791 49.322 79.8476C49.0824 79.8783 48.8389 79.8541 48.6101 79.7768C48.3812 79.6995 48.1729 79.5712 48.0009 79.4015C47.829 79.2319 47.6978 79.0253 47.6175 78.7975C47.5371 78.5697 47.5096 78.3266 47.537 78.0866ZM48.425 78.0766C48.425 78.7426 48.651 79.0916 49.325 79.0916C49.999 79.0916 50.232 78.7426 50.232 78.0766C50.232 77.4106 49.996 77.0616 49.325 77.0616C48.654 77.0616 48.425 77.3976 48.425 78.0766ZM38.204 78.0766C38.1664 77.841 38.1846 77.5999 38.2572 77.3727C38.3298 77.1455 38.4548 76.9385 38.622 76.7685C38.7893 76.5984 38.9942 76.47 39.2201 76.3936C39.4461 76.3172 39.6869 76.2949 39.923 76.3286C41.135 76.3286 41.489 76.9286 41.489 78.0136C41.489 78.1326 41.489 78.2836 41.48 78.3636H39.068C39.102 78.9636 39.507 79.1516 40.131 79.1516C40.5216 79.1543 40.9111 79.1096 41.291 79.0186V79.7326C40.8914 79.822 40.4823 79.8613 40.073 79.8496C39.827 79.8872 39.5756 79.868 39.3381 79.7934C39.1007 79.7188 38.8834 79.5909 38.7031 79.4193C38.5228 79.2478 38.3841 79.0372 38.2978 78.8038C38.2114 78.5703 38.1797 78.3202 38.205 78.0726L38.204 78.0766ZM39.068 77.8066H40.654C40.654 77.3256 40.598 76.9896 39.895 76.9896C39.297 76.9866 39.097 77.2796 39.068 77.8026V77.8066ZM89.097 79.7766V77.6386C89.1051 77.562 89.0958 77.4846 89.0698 77.4121C89.0438 77.3396 89.0019 77.274 88.947 77.2199C88.8921 77.1659 88.8258 77.125 88.7529 77.1002C88.68 77.0754 88.6024 77.0673 88.526 77.0766C88.1911 77.0874 87.8592 77.1429 87.539 77.2416V79.7766H86.675V76.3966H87.475V76.6276C87.9066 76.4262 88.3777 76.3237 88.854 76.3276C89.434 76.3276 89.954 76.7006 89.954 77.5976V79.7766H89.097ZM80.737 79.7766V76.3966H81.597V79.7766H80.737ZM75.856 79.7766V76.3966H76.72V79.7766H75.856ZM69.766 79.7766V77.6656C69.766 77.2366 69.535 77.0906 69.223 77.0856C68.8959 77.0764 68.5702 77.1325 68.265 77.2506C68.2848 77.3453 68.2945 77.4418 68.294 77.5386V79.7766H67.43V77.6656C67.43 77.2366 67.207 77.0856 66.892 77.0856C66.5669 77.0852 66.2441 77.141 65.938 77.2506V79.7766H65.074V76.3966H65.874V76.6276C66.2701 76.4405 66.701 76.3383 67.139 76.3276C67.301 76.3179 67.4632 76.3448 67.6134 76.4063C67.7637 76.4677 67.8982 76.5622 68.007 76.6826C68.4589 76.4469 68.9614 76.3251 69.471 76.3276C69.6317 76.3148 69.7933 76.3382 69.9437 76.3962C70.0942 76.4543 70.2296 76.5453 70.3401 76.6628C70.4506 76.7802 70.5333 76.9209 70.5821 77.0746C70.6309 77.2283 70.6445 77.3909 70.622 77.5506V79.7766H69.766ZM63.355 79.7766V79.2866C63.355 79.0126 63.341 78.7576 63.317 78.5206H60.997C60.9674 78.7728 60.9531 79.0266 60.954 79.2806V79.7716H60.072V79.1866C60.1401 77.6894 60.611 76.2384 61.435 74.9866L61.491 74.8766H62.752L62.822 74.9956C63.6954 76.2424 64.1858 77.7171 64.233 79.2386V79.7766H63.355ZM61.127 77.7616H63.176C62.9178 76.9654 62.5678 76.2019 62.133 75.4866C61.703 76.1995 61.3641 76.9634 61.124 77.7606L61.127 77.7616ZM56.03 79.7766V76.3966H56.83V76.6276C57.2616 76.4262 57.7327 76.3237 58.209 76.3276V77.0786C57.7639 77.0666 57.3195 77.1222 56.891 77.2436V79.7766H56.03ZM35.594 79.7766C34.7916 78.8292 34.3343 77.6376 34.297 76.3966H35.156C35.1731 77.3242 35.469 78.2253 36.005 78.9826C36.5414 78.2254 36.8376 77.3244 36.855 76.3966H37.719C37.68 77.6375 37.2218 78.8286 36.419 79.7756L35.594 79.7766ZM32.733 79.7766V76.3966H33.597V79.7766H32.733ZM29.9 79.7766V76.3966H30.7V76.6276C31.1318 76.4268 31.6028 76.3244 32.079 76.3276V77.0786C31.6342 77.067 31.1902 77.1226 30.762 77.2436V79.7766H29.9ZM25 79.7766V74.8766H26.983C28.31 74.8766 29.145 75.5936 29.145 77.3276C29.145 79.0036 28.3 79.7776 26.955 79.7776L25 79.7766ZM25.868 78.9596H26.968C27.807 78.9596 28.237 78.4356 28.237 77.3076C28.237 76.1796 27.824 75.6866 26.997 75.6866H25.865L25.868 78.9596ZM80.561 75.2926L81.161 74.6686L81.769 75.2926L81.161 75.9056L80.561 75.2926ZM75.68 75.2926L76.28 74.6686L76.88 75.2926L76.28 75.9056L75.68 75.2926ZM32.562 75.2926L33.162 74.6686L33.771 75.2926L33.162 75.9056L32.562 75.2926ZM70.691 70.0386V68.7216C71.311 68.8351 71.9397 68.8937 72.57 68.8966C73.302 68.8966 73.67 68.7966 73.67 68.3966C73.67 67.9296 73.358 67.8686 72.33 67.3966C71.33 66.9426 70.592 66.5416 70.592 65.4696C70.592 64.1526 71.392 63.6996 72.982 63.6996C73.5718 63.7004 74.1609 63.7381 74.746 63.8126V65.1386C74.1733 65.0626 73.5967 65.0198 73.019 65.0106C72.164 65.0106 71.994 65.1006 71.994 65.4496C71.994 65.7986 72.457 65.9836 73.151 66.2956C74.194 66.7676 75.051 67.1586 75.051 68.3626C75.051 69.6196 74.267 70.2086 72.573 70.2086C71.941 70.2049 71.3104 70.1477 70.688 70.0376L70.691 70.0386ZM58.62 66.9536C58.62 64.6886 59.484 63.7016 61.348 63.7016C63.212 63.7016 64.077 64.6886 64.077 66.9536C64.077 69.2186 63.209 70.2066 61.348 70.2066C59.487 70.2066 58.62 69.2196 58.62 66.9536ZM60.093 66.9536C60.093 68.2536 60.315 68.9136 61.348 68.9136C62.381 68.9136 62.604 68.2576 62.604 66.9536C62.604 65.6496 62.382 65.0096 61.348 65.0096C60.314 65.0096 60.097 65.6606 60.097 66.9536H60.093ZM47.852 66.9536C47.852 64.6886 48.717 63.7016 50.581 63.7016C52.445 63.7016 53.31 64.6886 53.31 66.9536C53.31 69.2186 52.442 70.2066 50.581 70.2066C48.72 70.2066 47.852 69.2196 47.852 66.9536ZM49.326 66.9536C49.326 68.2536 49.548 68.9136 50.581 68.9136C51.614 68.9136 51.838 68.2576 51.838 66.9536C51.838 65.6496 51.615 65.0096 50.581 65.0096C49.547 65.0096 49.325 65.6606 49.325 66.9536H49.326ZM45.456 70.1206V65.6686L43.547 68.8506L41.631 65.6686V70.1206H40.214V63.7866H42.051L43.551 66.3646L45.011 63.7866H46.881V70.1176L45.456 70.1206ZM55.256 70.1206V65.1096H53.537V63.7926H58.389V65.1096H56.676V70.1186L55.256 70.1206ZM68.45 70.1206L67.11 67.8596H66.477V70.1206H65.055V63.7916H67.623C68.978 63.7916 69.841 64.2976 69.841 65.8216C69.8816 66.2297 69.7719 66.6385 69.5326 66.9716C69.2933 67.3046 68.9407 67.5389 68.541 67.6306L70.097 70.1176L68.45 70.1206ZM66.477 66.6276H67.54C68.182 66.6276 68.375 66.3066 68.375 65.8276C68.375 65.3486 68.182 65.0156 67.54 65.0156H66.471L66.477 66.6276ZM68.559 61.5276V60.2046C69.1789 60.3185 69.8077 60.377 70.438 60.3796C71.17 60.3796 71.538 60.2856 71.538 59.8796C71.538 59.4126 71.226 59.3516 70.198 58.8796C69.198 58.4256 68.46 58.0246 68.46 56.9536C68.46 55.6356 69.26 55.1836 70.85 55.1836C71.4401 55.1846 72.0296 55.2227 72.615 55.2976V56.6166C72.0416 56.5451 71.4648 56.5041 70.887 56.4936C70.033 56.4936 69.862 56.5826 69.862 56.9326C69.862 57.2826 70.325 57.4656 71.019 57.7776C72.062 58.2496 72.919 58.6416 72.919 59.8456C72.919 61.1016 72.135 61.6906 70.441 61.6906C69.808 61.6874 69.1765 61.6308 68.553 61.5216L68.559 61.5276ZM54.059 59.4686V55.2756H55.476V59.4106C55.476 60.1336 55.906 60.3786 56.576 60.3786C57.246 60.3786 57.69 60.1326 57.69 59.4106V55.2756H59.111V59.4636C59.111 60.9976 58.101 61.6916 56.576 61.6916C55.051 61.6916 54.051 60.9976 54.051 59.4636L54.059 59.4686ZM48.859 61.5276V60.2046C49.4789 60.3185 50.1077 60.3771 50.738 60.3796C51.47 60.3796 51.838 60.2856 51.838 59.8796C51.838 59.4126 51.522 59.3516 50.498 58.8796C49.498 58.4256 48.76 58.0246 48.76 56.9536C48.76 55.6356 49.56 55.1836 51.149 55.1836C51.7335 55.1864 52.3173 55.2254 52.897 55.3006V56.6166C52.3232 56.5451 51.7461 56.5041 51.168 56.4936C50.314 56.4936 50.144 56.5826 50.144 56.9326C50.144 57.2826 50.606 57.4656 51.301 57.7776C52.344 58.2496 53.201 58.6416 53.201 59.8456C53.201 61.1016 52.417 61.6906 50.723 61.6906C50.0937 61.6868 49.4658 61.6303 48.846 61.5216L48.859 61.5276ZM79.923 61.6116V55.2746H81.327V61.6056L79.923 61.6116ZM66.115 61.6116V55.2746H67.531V61.6056L66.115 61.6116ZM77.346 61.6116V59.0866H75.087V61.6046H73.67V55.2736H75.087V57.7736H77.334V55.2736H78.751V61.6046L77.346 61.6116ZM38.822 61.6116V57.1526L36.902 60.3346L34.986 57.1526V61.6046H33.569V55.2736H35.406L36.906 57.8516L38.362 55.2736H40.236V61.6046L38.822 61.6116ZM60.328 61.6116V55.2766H63.094C64.383 55.2766 65.1 55.7486 65.1 56.9046C65.1209 57.2182 65.0314 57.5293 64.8469 57.7837C64.6624 58.0382 64.3946 58.22 64.09 58.2976C64.4406 58.3621 64.754 58.5563 64.9679 58.8415C65.1817 59.1267 65.2803 59.482 65.244 59.8366C65.244 60.9366 64.578 61.6016 63.177 61.6016L60.328 61.6116ZM61.748 60.4176H62.985C63.556 60.4176 63.785 60.2176 63.785 59.6616C63.785 59.1706 63.573 58.9616 63.044 58.9616H61.744L61.748 60.4176ZM61.748 57.8396H62.886C63.457 57.8396 63.66 57.5396 63.66 57.1176C63.66 56.6116 63.414 56.4756 62.886 56.4756H61.737L61.748 57.8396ZM45.183 61.6016V56.5926H43.473V55.2756H48.322V56.5926H46.608V61.6016H45.183ZM41.442 61.6016V55.2706H42.863V61.6016H41.442Z" fill="white"/>
<path d="M63.3984 50.5L57.3364 40H69.4604L75.5214 50.5H63.3984ZM39.1504 50.5L45.2124 40H57.3344L51.2734 50.5H39.1504ZM51.2744 29.5L57.3354 19L63.3974 29.5L57.3344 40L51.2744 29.5Z" fill="#ED0000"/>
</svg>
